<svg xmlns="http://www.w3.org/2000/svg" viewBox="0 0 480 280" role="img" aria-label="Claim check illustration">
  <defs>
    <linearGradient id="bg" x1="0" y1="0" x2="1" y2="1">
      <stop offset="0%" stop-color="#12303a"/>
      <stop offset="100%" stop-color="#2f233f"/>
    </linearGradient>
  </defs>
  <rect width="480" height="280" rx="18" fill="url(#bg)"/>
  <rect x="50" y="72" width="188" height="148" rx="12" fill="#f4f8ff" opacity="0.92"/>
  <rect x="68" y="92" width="148" height="12" rx="6" fill="#2d4552"/>
  <rect x="68" y="118" width="118" height="10" rx="5" fill="#54758a"/>
  <rect x="68" y="140" width="98" height="10" rx="5" fill="#54758a"/>
  <rect x="68" y="162" width="128" height="10" rx="5" fill="#54758a"/>
  <circle cx="198" cy="208" r="16" fill="#3d9b86"/>
  <path d="M192 208l5 5 10-11" stroke="#ffffff" stroke-width="4" stroke-linecap="round" stroke-linejoin="round" fill="none"/>
  <rect x="274" y="92" width="140" height="124" rx="12" fill="#101824" stroke="#5d7588" stroke-width="2"/>
  <rect x="294" y="110" width="100" height="14" rx="7" fill="#8ba5ba"/>
  <rect x="294" y="136" width="64" height="8" rx="4" fill="#4d697c"/>
  <rect x="294" y="152" width="78" height="8" rx="4" fill="#4d697c"/>
  <rect x="294" y="168" width="54" height="8" rx="4" fill="#4d697c"/>
  <circle cx="365" cy="191" r="13" fill="#ffb84f"/>
  <path d="M359 191l4 4 9-10" stroke="#2a2636" stroke-width="3.5" stroke-linecap="round" stroke-linejoin="round" fill="none"/>
</svg>
