<svg xmlns="http://www.w3.org/2000/svg" viewBox="0 0 480 280" role="img" aria-label="Verified claims illustration">
  <defs>
    <linearGradient id="bg2" x1="0" y1="0" x2="1" y2="1">
      <stop offset="0%" stop-color="#182b2f"/>
      <stop offset="100%" stop-color="#3a2a1f"/>
    </linearGradient>
  </defs>
  <rect width="480" height="280" rx="18" fill="url(#bg2)"/>
  <rect x="48" y="50" width="210" height="182" rx="12" fill="#f9fbff" opacity="0.94"/>
  <rect x="76" y="78" width="150" height="12" rx="6" fill="#2f4956"/>
  <rect x="110" y="112" width="118" height="9" rx="4.5" fill="#5a7b8d"/>
  <rect x="110" y="138" width="104" height="9" rx="4.5" fill="#5a7b8d"/>
  <rect x="110" y="164" width="126" height="9" rx="4.5" fill="#5a7b8d"/>
  <circle cx="86" cy="116" r="12" fill="#3d9b86"/>
  <path d="M81 116l4 4 8-9" stroke="#ffffff" stroke-width="3.4" stroke-linecap="round" stroke-linejoin="round" fill="none"/>
  <circle cx="86" cy="142" r="12" fill="#ffb84f"/>
  <path d="M81 142l4 4 8-9" stroke="#2a2636" stroke-width="3.4" stroke-linecap="round" stroke-linejoin="round" fill="none"/>
  <circle cx="86" cy="168" r="12" fill="#8a71ff"/>
  <path d="M81 168l4 4 8-9" stroke="#ffffff" stroke-width="3.4" stroke-linecap="round" stroke-linejoin="round" fill="none"/>
  <rect x="286" y="86" width="146" height="108" rx="12" fill="#0f1722" stroke="#72879a" stroke-width="2"/>
  <rect x="306" y="106" width="106" height="11" rx="5.5" fill="#a9bdd1"/>
  <rect x="306" y="129" width="72" height="8" rx="4" fill="#4d697c"/>
  <rect x="306" y="145" width="88" height="8" rx="4" fill="#4d697c"/>
  <rect x="306" y="161" width="62" height="8" rx="4" fill="#4d697c"/>
  <circle cx="402" cy="212" r="22" fill="#3d9b86"/>
  <path d="M392 212l7 7 15-17" stroke="#ffffff" stroke-width="4.5" stroke-linecap="round" stroke-linejoin="round" fill="none"/>
</svg>
